/* XPM */
static char * mfaPigs_xpm[] = {
"96 64 12 1",
" 	c None",
".	c #45283C",
"+	c #8F563B",
"@	c #663931",
"#	c #323C39",
"$	c #524B24",
"%	c #222034",
"&	c #DF7126",
"*	c #76428A",
"=	c #D77BBA",
"-	c #D95763",
";	c #000000",
"     ..        ..        ..      .+@.    .###$#..%%.##$$.  .+@.   ..           ..           ..  ",
".....&+........&+........&+.......&+.    .............###  .+@.  .&+...........&+...........&+. ",
"++++++@+++++++++@+++++++++@++++++++@.    %%...#####......  .+@.  .+@++++++++++++@++++++++++++@. ",
"@@@@@+@@@@@@@@@+@@@@@@@@@+@@@@@@@@+@.    ...###$$$###....  .+@.  .+@@@@@@@@@@@@+@@@@@@@@@@@@+@. ",
"     +@        +@        +@       +@    *......##.....%%%  .&+.  .+@.          +@          .+@. ",
"     +@        +@        +@       +@    .................  .+@.  .+@.          +@          .+@. ",
"***         ********       ********     #$$$###..####$$#.  .+@.  .+@.       ********       .+@. ",
"...**   ****........*******........**  *###..........####  .+@.  .+@.   ****........***    .+@. ",
"#....***.....................####....**..................  .+@.  .+@.  *...............**  .+@. ",
"###........%%.#$###..%%%%.####$$###........%%.#$###..%%%.* .+@.  .+@.  ....%%.#$###......* .+@. ",
"....%%%%......................##....%%%%.................. .+@.  .+@. .................... .+@. ",
".........#$$$##....$$###.................#$$$##....$$###.. .+@.  .+@. ...#$$$##....$$###.. .+@. ",
"%.####..####.....###.....##$#..%%.####..####.....###.....# .+@.  .+@. ..####.....###.....# .+@. ",
".............%%......%%.....##...............%%......%%... .+@.  .+@. .......%%......%%... .+@. ",
"..####....###....##$..............####....###....##$.....  .&+.  .&+.  ...###....##$.....  .&+. ",
"##$$#..##..........#$##.###....###$$#..##..........#$##..  .+@.  .+@.  ##..........#$##..  .+@. ",
".............##..............................##..........  .+@.  .+@.  ......##..........  .+@. ",
"......%%%.##$$###..###...%%%%%........%%..##$$###..###...  .+@.  .+@. ....##$$###..###...  .+@. ",
".##$$#...........................##$$#...................* .+@.  .+@. ...................* .+@. ",
"....###.###.%%%....%%%%....####.....###.###.%%%....%%%%... .+@.  .+@. ..###.%%%....%%%%... .+@. ",
"##.............###......####$$####.............###......## .+@.  .+@. .........###......## .+@. ",
"......%%%...####$$###.........##......%%%...####$$###....  .+@.  .+@. %%%...####$$###....  .+@. ",
".#$$##..........###..............#$$##..........###......  .+@.  .+@. ..........###....    .+@. ",
"..##....##$##........%%%.....%%%..##....##$##........%%%.  .+@.  .+@. ..##$##..........    .+@. ",
"...............%%%.............................%%%......   .&+.  .+@.  ........%%%....     .+@. ",
"     ...............####............................####   .+@.  .+@.    ...  ......       .+@. ",
"  ..   ###$$......####........###......###$$......####..   .+@.  .+@.          ..          .+@. ",
"..&+.   ..#####............###$$$$$##.....#####.........   .+@.  .&+...........&+...........&+. ",
"+++@.   .......................####.....................*  .+@.  .+@++++++++++++@++++++++++++@. ",
"@@+@.   %%%.###$$###..%%%...............%%%.###$$###..%%%  .+@.  .+@@@@@@@@@@@@+@@@@@@@@@@@@+@. ",
" .+@.    ......###...............%%%...........###.......  .+@.   +@           +@           +@  ",
" .+@.    ................................................  .+@.   +@           +@           +@  ",
" .+@.    .###$#..%%.##$$....##............###$#..%%.##$$.  .+@.                                 ",
" .+@.    .............###....###$$$#..................###  .&+..                                ",
" .+@.    %%...#####.......%%.....#####...%%...#####......  .+@++                                ",
" .+@.    ...###$$$###.......................###$$$###....  .+@@@                                ",
" .&+.    ......##.....%%%....##................##.....%%%*  +@                                  ",
" .+@.   *..................##$$##..%%%....................* +@                                  ",
" .+@.   #$$$###..####$$#................#$$$###..####$$#....****                                ",
" .+@.   ###..........####...............###..........###........                                ",
" .+@.  *.....................####............................###                                ",
" .+@.  ....%%.#$###..%%%%.####$$###........%%.#$###..%%%%.####$$                                ",
" .+@. ........................##....%%%%......................##                 %%%            ",
" .+@. ...#$$$##....$$###.................#$$$##....$$###........               %%===%           ",
" .+@. ..####.....###.....##$#..%%.####..####.....###.....##$#..%             %%==***=%          ",
" .+@. .......%%......%%.....##...............%%......%%.....##..         %%%%===***===%         ",
" .&+.  ...###....##$..............####....###....##$............        %--=--=**=====%         ",
" .+@.  ##..........#$##.###....###$$#..##..........#$##.###....#         %===-====-%-=%         ",
" .+@.  ......##..............................##.................        %==;==*=-%% -=          ",
" .+@. ....##$$###..###...%%%%%........%%%.##$$###..###...%%%%%..        %====*=%%               ",
" .+@. ...........................##$$#..........................        %--=%-=                 ",
" .+@. ..###.%%%....%%%%....####.....###.###.%%%....%%%%....####.         %%%                    ",
" .+@. .........###......####$$####.............###......####$$##                                ",
" .+@. %%%...####$$###.........##......%%%...####$$###.........##                                ",
" .+@. ..........###..............#$$##..........###.............                                ",
" .+@. ..##$##........%%%.....%%%..##....##$##........%%%.....%%%                                ",
" .&+.  ........%%%.............................%%%..............                                ",
" .+@.  .............####.            .......  .............                                     ",
" .+@.  ###$$......####..    ..       ..        ..        ..                                     ",
" .+@.   ..#####.........   .&+.......&+........&+........&+.....                                ",
" .+@.   ................*  .+@++++++++@+++++++++@+++++++++@+++++                                ",
" .+@.   %%%.###$$###..%%%  .+@@@@@@@@+@@@@@@@@@+@@@@@@@@@+@@@@@@                                ",
" .+@.    ......###.......  .+@.      +@        +@        +@                                     ",
" .+@.    ................  .+@.      +@        +@        +@                                     "};
