/* XPM */
static char * gimp_temp_83261_xpm[] = {
"96 128 31 1",
" 	c None",
".	c #ACBBBE",
"+	c #262626",
"@	c #4D5D80",
"#	c #455475",
"$	c #8D9CA0",
"%	c #8A999C",
"&	c #849295",
"*	c #95A5A8",
"=	c #909EA1",
"-	c #889699",
";	c #91A1A3",
">	c #C4D3D5",
",	c #4A5A7D",
"'	c #869598",
")	c #869899",
"!	c #4E6083",
"~	c #889496",
"{	c #475879",
"]	c #9AAAAD",
"^	c #2472A5",
"/	c #86C5EF",
"(	c #B3DAF2",
"_	c #000000",
":	c #17577A",
"<	c #3F93D3",
"[	c #62B0E0",
"}	c #516288",
"|	c #506186",
"1	c #485779",
"2	c #505E82",
"...+@@#$%&%%%%%*$%$=-%%%%;-;>......+@@,%$&=%==%%=%%%=-'-%=%$>......+@@,%%%--)%%$=*%%%%%%%%%=>...",
"...+@@!,-&%%%=%%%%%-~%%;-%%=>......+@,,{~%%*%%%%%%%%=%$-*%%=>......+@@,@$%--)%]-%*%=&=%%;%%%>...",
"...+^^^^///^(//////^(//////^>......+^^^^///^(//////^(//////^>......+^^^^///^(//////^(//////^>...",
"++++_____:::::::::::::::::::++++++++_____:::::::::::::::::::+++..+++_____:::::::::::::::::::++++",
",{^_^^^^^//^(//////^(//////^(^^^^^^_^^^^^//^(//////^(//////^(_>..+^_^^^^^//^(//////^(//////^(_@,",
"{,^_^::::<<^[<<<<<<^[<<<<<<^[<:::::_^::::<<^[<<<<<<^[<<<<<<^[^>..+^_^::::<<^[<<<<<<^[<<<<<<^[^,,",
",@^_^::::<<^[<<<<<<^[<<<<<<^[<:::::_^::::<<^[<<<<<<^[<<<<<<^[^>..+^_^::::<<^[<<<<<<^[<<<<<<^[^@,",
",,^_^::::<<^[<<<<<<^[<<<<<<^[<<::::_^::::<<^[<<<<<<^[<<<<<<^[^>..+^_^::::<<^[<<<<<<^[<<<<<<^[^@@",
",,^_^::::<<^[<<<<<<^[<<<<<<^[<<<:::_^::::<<^[<<<<<<^[<<<<<<^[^>..+^_^::::<<^[<<<<<<^[<<<<<<^[^}*",
"@!^_^::::<<^[<<<<<<^[<<<<<<^[<<<:::_^::::<<^[<<<<<<^[<<<<<<^[^>..+^_^::::<<^[<<<<<<^[<<<<<<^[^,%",
"%|^_^::::<<^[<<<<<<^[<<<<<<^[<<<<::_^::::<<^[<<<<<<^[<<<<<<^[^>..+^_^::::<<^[<<<<<<^[<<<<<<^[^,*",
"=%::::::::::::::::::::::::::::::::::::::::::::::::::::::::::::>..+_____:::::::::::::::::::::::@%",
"-=(^(//////^(//////^(//////^(//////^(//////^(//////^(//////^(^>..+^_^^^////^(//////^(//////^(^@%",
"%%[^[<<<<<<^[<<<<<<^[<<<<<<^[<<<<<<^[<<<<<<^[<<<<<<^[<<<<<<^[^>..+^_^::<<<<^[<<<<<<^[<<<<<<^[^@%",
"%%[^[<<<<<<^[<<<<<<^[<<<<<<^[<<<<<<^[<<<<<<^[<<<<<<^[<<<<<<^[^>..+^_^::<<<<^[<<<<<<^[<<<<<<^[^,=",
"%%[^[<<<<<<^[<<<<<<^[<<<<<<^[<<<<<<^[<<<<<<^[<<<<<<^[<<<<<<^[^>..+^_^::<<<<^[<<<<<<^[<<<<<<^[^@%",
");[^[<<<<<<^[<<<<<<^[<<<<<<^[<<<<<<^[<<<<<<^[<<<<<<^[<<<<<<^[^>..+^_^::<<<<^[<<<<<<^[<<<<<<^[^,%",
"%%[^[<<<<<<^[<<<<<<^[<<<<<<^[<<<<<<^[<<<<<<^[<<<<<<^[<<<<<<^[^>..+^_^::<<<<^[<<<<<<^[<<<<<<^[^,%",
"%*[^[<<<<<<^[<<<<<<^[<<<<<<^[<<<<<<^[<<<<<<^[<<<<<<^[<<<<<<^[^>..+^_^::<<<<^[<<<<<<^[<<<<<<^[^,=",
"%%::::::::::::::::::::::::::::::::::::::::::::::::::::::::::::>..+_____:::::::::::::::::::::::@)",
"-$(^(//////^(//////^(//////^(//////^(//////^(//////^(//////^(^>..+^_^^^////^(//////^(//////^(^1%",
"%*[^[<<<<<<^[<<<<<<^[<<<<<<^[<<<<<<^[<<<<<<^[<<<<<<^[<<<<<<^[^>..+^_^::<<<<^[<<<<<<^[<<<<<<^[^@%",
"%%[^[<<<<<<^[<<<<<<^[<<<<<<^[<<<<<<^[<<<<<<^[<<<<<<^[<<<<<<^[^>..+^_^::<<<<^[<<<<<<^[<<<<<<^[^,%",
"=;[^[<<<<<<^[<<<<<<^[<<<<<<^[<<<<<<^[<<<<<<^[<<<<<<^[<<<<<<^[^>..+^_^::<<<<^[<<<<<<^[<<<<<<^[^@%",
"**[^[<<<<<<^[<<<<<<^[<<<<<<^[<<<<<<^[<<<<<<^[<<<<<<^[<<<<<<^[^>..+^_^::<<<<^[<<<<<<^[<<<<<<^[^@%",
"%%[^[<<<<<<^[<<<<<<^[<<<<<<^[<<<<<<^[<<<<<<^[<<<<<<^[<<<<<<^[^>..+^_^::<<<<^[<<<<<<^[<<<<<<^[^,&",
";%[^[<<<<<<^[<<<<<<^[<<<<<<^[<<<<<<^[<<<<<<^[<<<<<<^[<<<<<<^[^>..+^_^::<<<<^[<<<<<<^[<<<<<<^[^,%",
"$%::::::::::::::::::::::::::::::::::::::::::::::::::::::::::::>..+_____:::::::::::::::::::::::@)",
">>>](//////^(//////^(//////^>>>>>>>](//////^(//////^(//////^>>>..+]]^^^////^(//////^(//////^>>>>",
"]].+^<<<<<<^[<<<<<<^[<<<<<<^>]]]]].+^<<<<<<^[<<<<<<^[<<<<<<^>]]]]].+^::<<<<^[<<<<<<^[<<<<<<^>]]]",
"...+^:<<<<<^[<<<<<<^[<<<<<<^>]]....+^:<<<<<^[<<<<<<^[<<<<<<^>]]....+^::<<<<^[<<<<<<^[<<<<<<^>]].",
"...+^:<<<<<^[<<<<<<^[<<<<<<^>].....+^:<<<<<^[<<<<<<^[<<<<<<^>].....+^::<<<<^[<<<<<<^[<<<<<<^>]..",
"...+^::<<<<^[<<<<<<^[<<<<<<^>......+^::<<<<^[<<<<<<^[<<<<<<^>......+^::<<<<^[<<<<<<^[<<<<<<^>...",
"...+^:::<<<^[<<<<<<^[<<<<<<^>......+^:::<<<^[<<<<<<^[<<<<<<^>......+^:::<<<^[<<<<<<^[<<<<<<^>...",
"...+^:::<<<^[<<<<<<^[<<<<<<^>......+^:::<<<^[<<<<<<^[<<<<<<^>......+^:::<<<^[<<<<<<^[<<<<<<^>...",
"++++_____:::::::::::::::::::++++++++_____:::::::::::::::::::+++..+++_____:::::::::::::::::::++++",
"@@^_^^^^^//^(//////^(//////^(^^^^^^_^^^^^//^(//////^(//////^(_>..+^_^^^^^//^(//////^(//////^(_#@",
",,^_^::::<<^[<<<<<<^[<<<<<<^[<:::::_^::::<<^[<<<<<<^[<<<<<<^[^>..+^_^::::<<^[<<<<<<^[<<<<<<^[^,,",
",2^_^::::<<^[<<<<<<^[<<<<<<^[<:::::_^::::<<^[<<<<<<^[<<<<<<^[^>..+^_^::::<<^[<<<<<<^[<<<<<<^[^,,",
"|,^_^::::<<^[<<<<<<^[<<<<<<^[<<::::_^::::<<^[<<<<<<^[<<<<<<^[^>..+^_^::::<<^[<<<<<<^[<<<<<<^[^2,",
"2#^_^::::<<^[<<<<<<^[<<<<<<^[<<<:::_^::::<<^[<<<<<<^[<<<<<<^[^>..+^_^::::<<^[<<<<<<^[<<<<<<^[^,%",
",,^_^::::<<^[<<<<<<^[<<<<<<^[<<<:::_^::::<<^[<<<<<<^[<<<<<<^[^>..+^_^::::<<^[<<<<<<^[<<<<<<^[^,%",
"%{^_^::::<<^[<<<<<<^[<<<<<<^[<<<<::_^::::<<^[<<<<<<^[<<<<<<^[^>..+^_^::::<<^[<<<<<<^[<<<<<<^[^,%",
"=%::::::::::::::::::::::::::::::::::::::::::::::::::::::::::::>..+_____:::::::::::::::::::::::#%",
"%=(^(//////^(//////^(//////^(//////^(//////^(//////^(//////^(^>..+^_^^^////^(//////^(//////^(^@%",
"%%[^[<<<<<<^[<<<<<<^[<<<<<<^[<<<<<<^[<<<<<<^[<<<<<<^[<<<<<<^[^>..+^_^::<<<<^[<<<<<<^[<<<<<<^[^1%",
"%%[^[<<<<<<^[<<<<<<^[<<<<<<^[<<<<<<^[<<<<<<^[<<<<<<^[<<<<<<^[^>..+^_^::<<<<^[<<<<<<^[<<<<<<^[^@-",
"=%[^[<<<<<<^[<<<<<<^[<<<<<<^[<<<<<<^[<<<<<<^[<<<<<<^[<<<<<<^[^>..+^_^::<<<<^[<<<<<<^[<<<<<<^[^,)",
"%%[^[<<<<<<^[<<<<<<^[<<<<<<^[<<<<<<^[<<<<<<^[<<<<<<^[<<<<<<^[^>..+^_^::<<<<^[<<<<<<^[<<<<<<^[^,;",
")$[^[<<<<<<^[<<<<<<^[<<<<<<^[<<<<<<^[<<<<<<^[<<<<<<^[<<<<<<^[^>..+^_^::<<<<^[<<<<<<^[<<<<<<^[^@%",
")%[^[<<<<<<^[<<<<<<^[<<<<<<^[<<<<<<^[<<<<<<^[<<<<<<^[<<<<<<^[^>..+^_^::<<<<^[<<<<<<^[<<<<<<^[^,%",
"%%::::::::::::::::::::::::::::::::::::::::::::::::::::::::::::>..+_____:::::::::::::::::::::::,%",
"%=(^(//////^(//////^(//////^(//////^(//////^(//////^(//////^(^>..+^_^^^////^(//////^(//////^(^@%",
"%%[^[<<<<<<^[<<<<<<^[<<<<<<^[<<<<<<^[<<<<<<^[<<<<<<^[<<<<<<^[^>..+^_^::<<<<^[<<<<<<^[<<<<<<^[^,=",
"%$[^[<<<<<<^[<<<<<<^[<<<<<<^[<<<<<<^[<<<<<<^[<<<<<<^[<<<<<<^[^>..+^_^::<<<<^[<<<<<<^[<<<<<<^[^}%",
"%%[^[<<<<<<^[<<<<<<^[<<<<<<^[<<<<<<^[<<<<<<^[<<<<<<^[<<<<<<^[^>..+^_^::<<<<^[<<<<<<^[<<<<<<^[^}%",
"%$[^[<<<<<<^[<<<<<<^[<<<<<<^[<<<<<<^[<<<<<<^[<<<<<<^[<<<<<<^[^>..+^_^::<<<<^[<<<<<<^[<<<<<<^[^@%",
"$%[^[<<<<<<^[<<<<<<^[<<<<<<^[<<<<<<^[<<<<<<^[<<<<<<^[<<<<<<^[^>..+^_^::<<<<^[<<<<<<^[<<<<<<^[^2-",
"$%[^[<<<<<<^[<<<<<<^[<<<<<<^[<<<<<<^[<<<<<<^[<<<<<<^[<<<<<<^[^>..+^_^::<<<<^[<<<<<<^[<<<<<<^[^2*",
")$::::::::::::::::::::::::::::::::::::::::::::::::::::::::::::>..+_____:::::::::::::::::::::::@%",
">>>](//////^(//////^(//////^>>>>>>>](//////^(//////^(//////^>>>..+]]^^^////^(//////^(//////^>>>>",
"]].+_:::::::::::::::::::::::>]]]]].+_:::::::::::::::::::::::>]]]]].+___:::::::::::::::::::::>]]]",
"...+]>>>>>>>>>>>>>>>>>>>>>>>>]]....+]>>>>>>>>>>>>>>>>>>>>>>>>]]....+]>>>>>>>>>>>>>>>>>>>>>>>>]].",
".............................]...............................]...............................]..",
"................................................................................................",
"...+++++++++++++++++++++++++>......+++++++++++++++++++++++++>......+++++++++++++++++++++++++>...",
"...+^^^^^^^_^^^^^^^_^^^^^^^_>......+^^^^^^^_^^^^^^^_^^^^^^^_>......+^^^^^^^_^^^^^^^_^^^^^^^_>...",
"++++________________________++++++++________________________+++..+++________________________++++",
"@@^_^^^^^^^_^^^^^^^_^^^^^^^_^^^^^^^_^^^^^^^_^^^^^^^_^^^^^^^_^_>..+^_^^^^^^^_^^^^^^^_^^^^^^^_^_@,",
",,^_^::::::_^::::::_^::::::_^::::::_^::::::_^::::::_^::::::_^_>..+^_^::::::_^::::::_^::::::_^_@,",
",,^_^::::::_^::::::_^::::::_^::::::_^::::::_^::::::_^::::::_^_>..+^_^::::::_^::::::_^::::::_^_,,",
",,^_^::::::_^::::::_^::::::_^::::::_^::::::_^::::::_^::::::_^_>..+^_^::::::_^::::::_^::::::_^_},",
"@}^_^::::::_^::::::_^::::::_^::::::_^::::::_^::::::_^::::::_^_>..+^_^::::::_^::::::_^::::::_^_@@",
"@@^_^::::<<^[<<<<<<^[<<<<<<^[<<<:::_^::::<<^[<<<<<<^[<<<<<<^[^>..+^_^::::<<^[<<<<<<^[<<<<<<^[^,$",
"%@^_^::::<<^[<<<<<<^[<<<<<<^[<<<<::_^::::<<^[<<<<<<^[<<<<<<^[^>..+^_^::::<<^[<<<<<<^[<<<<<<^[^,$",
"%;::::::::::::::::::::::::::::::::::::::::::::::::::::::::::::>..+_____:::::::::::::::::::::::,%",
"&%(^(//////^(//////^(//////^(//////^(//////^(//////^(//////^(^>..+^_^^^////^(//////^(//////^(^,%",
"**[^[<<<<<<^[<<<<<<^[<<<<<<^[<<<<<<^[<<<<<<^[<<<<<<^[<<<<<<^[^>..+^_^::<<<<^[<<<<<<^[<<<<<<^[^,%",
";%[^[<<<<<<^[<<<<<<^[<<<<<<^[<<<<<<^[<<<<<<^[<<<<<<^[<<<<<<^[^>..+^_^::<<<<^[<<<<<<^[<<<<<<^[^,%",
"%$[^[<<<<<<^[<<<<<<^[<<<<<<^[<<<<<<^[<<<<<<^[<<<<<<^[<<<<<<^[^>..+^_^::<<<<^[<<<<<<^[<<<<<<^[^@%",
"%$[^[<<<<<<^[<<<<<<^[<<<<<<^[<<<<<<^[<<<<<<^[<<<<<<^[<<<<<<^[^>..+^_^::<<<<^[<<<<<<^[<<<<<<^[^,=",
"%%[^[<<<<<<^[<<<<<<^[<<<<<<^[<<<<<<^[<<<<<<^[<<<<<<^[<<<<<<^[^>..+^_^::<<<<^[<<<<<<^[<<<<<<^[^,%",
"%%[^[<<<<<<^[<<<<<<^[<<<<<<^[<<<<<<^[<<<<<<^[<<<<<<^[<<<<<<^[^>..+^_^::<<<<^[<<<<<<^[<<<<<<^[^@&",
"~;::::::::::::::::::::::::::::::::::::::::::::::::::::::::::::>..+_____:::::::::::::::::::::::@)",
"%;(^(//////^(//////^(//////^(//////^(//////^(//////^(//////^(^>..+^_^^^////^(//////^(//////^(^,*",
"=%[^[<<<<<<^[<<<<<<^[<<<<<<^[<<<<<<^[<<<<<<^[<<<<<<^[<<<<<<^[^>..+^_^::<<<<^[<<<<<<^[<<<<<<^[^@$",
"=$[^[<<<<<<^[<<<<<<^[<<<<<<^[<<<<<<^[<<<<<<^[<<<<<<^[<<<<<<^[^>..+^_^::<<<<^[<<<<<<^[<<<<<<^[^@-",
"%$[^[<<<<<<^[<<<<<<^[<<<<<<^[<<<<<<^[<<<<<<^[<<<<<<^[<<<<<<^[^>..+^_^::<<<<^[<<<<<<^[<<<<<<^[^@=",
"%%[^[<<<<<<^[<<<<<<^[<<<<<<^[<<<<<<^[<<<<<<^[<<<<<<^[<<<<<<^[^>..+^_^::<<<<^[<<<<<<^[<<<<<<^[^@%",
"=%[^[<<<<<<^[<<<<<<^[<<<<<<^[<<<<<<^[<<<<<<^[<<<<<<^[<<<<<<^[^>..+^_^::<<<<^[<<<<<<^[<<<<<<^[^1%",
"*%[^[<<<<<<^[<<<<<<^[<<<<<<^[<<<<<<^[<<<<<<^[<<<<<<^[<<<<<<^[^>..+^_^::<<<<^[<<<<<<^[<<<<<<^[^,%",
"%$::::::::::::::::::::::::::::::::::::::::::::::::::::::::::::>..+_____:::::::::::::::::::::::@)",
">>>](//////^(//////^(//////^>>>>>>>](//////^(//////^(//////^>>>..+]]^^^////^(//////^(//////^>>>>",
"]].+_:::::::::::::::::::::::>]]]]].+_:::::::::::::::::::::::>]]]]].+___:::::::::::::::::::::>]]]",
"...+,@2##,@,@@,,,}@@@,,,{@,@>]]....+,@,{@,@,2,@,,,,,,!,@@,@,>]]....+,,,,,1@,@@,@!@}1},1@1@,@>]].",
"...+@,%%%$%%%-%%%==%%%%&%%%%>].....+@,%=%%%*%*%%%~-))=$%$;%%>].....+,,@-%=%-==%%;%)=%-%&-=%)>]..",
"                                <<<^[<<<<<<^[<<<<<<^[<<<<<<^[<<<                                ",
"                                <<<^[<<<<<<^[<<<<<<^[<<<<<<^[<<<                                ",
"  (^(//////^(//////^(//////^(^  <<<^[<<<<<<^[<<<<<<^[<<<<<<^[<<<                                ",
"  ::::::::::::::::::::::::::::  ::::::::::::::::::::::::::::::::                                ",
"  (^(//////^(//////^(//////^(^  ///^(//////^(//////^(//////^(///                                ",
"  [^[<<<<<<^[<<<<<<^[<<<<<<^[^  <<<^[<<<<<<^[<<<<<<^[<<<<<<^[<<<                                ",
"  [^[<<<<<<^[<<<<<<^[<<<<<<^[^  <<<^[<<<<<<^[<<<<<<^[<<<<<<^[<<<                                ",
"  [^[<<<<<<^[<<<<<<^[<<<<<<^[^  <<<^[<<<<<<^[<<<<<<^[<<<<<<^[<<<                                ",
"  [^[<<<<<<^[<<<<<<^[<<<<<<^[^  <<<^[<<<<<<^[<<<<<<^[<<<<<<^[<<<                                ",
"  [^[<<<<<<^[<<<<<<^[<<<<<<^[^  <<<^[<<<<<<^[<<<<<<^[<<<<<<^[<<<                                ",
"  [^[<<<<<<^[<<<<<<^[<<<<<<^[^  <<<^[<<<<<<^[<<<<<<^[<<<<<<^[<<<                                ",
"  ::::::::::::::::::::::::::::  ::::::::::::::::::::::::::::::::                                ",
"  (^(//////^(//////^(//////^(^  ///^(//////^(//////^(//////^(///                                ",
"  [^[<<<<<<^[<<<<<<^[<<<<<<^[^  <<<^[<<<<<<^[<<<<<<^[<<<<<<^[<<<                                ",
"  [^[<<<<<<^[<<<<<<^[<<<<<<^[^  <<<^[<<<<<<^[<<<<<<^[<<<<<<^[<<<                                ",
"  [^[<<<<<<^[<<<<<<^[<<<<<<^[^  <<<^[<<<<<<^[<<<<<<^[<<<<<<^[<<<                                ",
"  [^[<<<<<<^[<<<<<<^[<<<<<<^[^  <<<^[<<<<<<^[<<<<<<^[<<<<<<^[<<<                                ",
"  [^[<<<<<<^[<<<<<<^[<<<<<<^[^  <<<^[<<<<<<^[<<<<<<^[<<<<<<^[<<<                                ",
"  [^[<<<<<<^[<<<<<<^[<<<<<<^[^  <<<^[<<<<<<^[<<<<<<^[<<<<<<^[<<<                                ",
"  ::::::::::::::::::::::::::::  ::::::::::::::::::::::::::::::::                                ",
"  (^(//////^(//////^(//////^(^  ///^(//////^(//////^(//////^(///                                ",
"  [^[<<<<<<^[<<<<<<^[<<<<<<^[^  <<<^[<<<<<<^[<<<<<<^[<<<<<<^[<<<                                ",
"  [^[<<<<<<^[<<<<<<^[<<<<<<^[^  <<<^[<<<<<<^[<<<<<<^[<<<<<<^[<<<                                ",
"  [^[<<<<<<^[<<<<<<^[<<<<<<^[^  <<<^[<<<<<<^[<<<<<<^[<<<<<<^[<<<                                ",
"  [^[<<<<<<^[<<<<<<^[<<<<<<^[^  <<<^[<<<<<<^[<<<<<<^[<<<<<<^[<<<                                ",
"  [^[<<<<<<^[<<<<<<^[<<<<<<^[^  <<<^[<<<<<<^[<<<<<<^[<<<<<<^[<<<                                ",
"  [^[<<<<<<^[<<<<<<^[<<<<<<^[^  <<<^[<<<<<<^[<<<<<<^[<<<<<<^[<<<                                ",
"  ::::::::::::::::::::::::::::  ::::::::::::::::::::::::::::::::                                ",
"  (^(//////^(//////^(//////^(^  ///^(//////^(//////^(//////^(///                                ",
"  ::::::::::::::::::::::::::::  <<<^[<<<<<<^[<<<<<<^[<<<<<<^[<<<                                ",
"                                <<<^[<<<<<<^[<<<<<<^[<<<<<<^[<<<                                ",
"                                <<<^[<<<<<<^[<<<<<<^[<<<<<<^[<<<                                "};
