/* XPM */
static char * mfaGrass_xpm[] = {
"64 64 3 1",
" 	c None",
".	c #6ABE30",
"+	c #37946E",
"..............+.................+.......+..+.....+.+............",
"..+.............................+................+.+............",
"..+....+.........+.+.+....................................++....",
"...+...+.+..+....+....+...+.............................+.+.....",
"...+.+...++.........................................+...........",
"......+..++........................+............................",
".........+..+...............+...+........+...+.........+........",
"........+...................+...................................",
"+.+......................++.......+....+.............+..........",
"...+.....+......+.+...................+.................+...+...",
"........+.........+...................................+....+....",
".+..+.............+.......................+.....................",
".........+....................+..+.+............................",
".............+..........+.....+.................................",
"..........+..............................+..+...................",
"+......+...................+.............+..........+...........",
"........................................+.........+.+....+....++",
".................................+.......................+......",
".........................++...+...............+..........++.....",
"...........+.+................+......+..........................",
"...........+...........................+........................",
"..+........+......+....+................+.......................",
".....+....+..+.........+...+..+..................+..............",
"+..............................+...............+.+..............",
"..+..........................+.+...........+.....++....+....+...",
".......................+........................................",
".............+...............................+..................",
"...+..............+......................+..............+.......",
".+.................................................+...++.......",
"................+....+..................................+......+",
".....+........+.+.+.............................+...+...+......+",
"..............+..+.+................................+...+.......",
".+...........+.+.+.+.......+..............................+..+..",
".+....+...................++....+.+.......................+..+.+",
"...........................+..................................+.",
"..+.....................................+.....................+.",
".+...............................++..........+......+.+.........",
"......+...........................+....................+.+......",
"+......+........+.................+....+....+...++..............",
"+........+..........++.......+....+...+.............+...+.......",
"............+.............+.....+......................+........",
"...+........++............+.....................+.++............",
"...+........+++...........+......................++...........+.",
"...+...........................+.......+..........+.............",
"+..........+...................................+........++...+..",
"...........+..........+..+....+..........................+...+..",
"..................................+..........+..................",
"..+......+................+.+..................................+",
"..+..............+.+.............+........+....................+",
"........+........+...+........................+.................",
".+...........+....+...........................+..+........+.....",
".......................+.....................+..+......+........",
".................+.+...+........+.....+.........+..............+",
"............+........+...+..............+......+.............+.+",
"........................................+..+..++.............+.+",
"..............+............................+++.+.............+..",
"...+..................................+....+....+...........+...",
"...+.......++....+.........................+..+.............+...",
"..........++..+...................+........+................+...",
".........++........+....+.........................+.............",
".+................................................+........+....",
"..................+....+.....+....+............+..+........+....",
"..+.........+..........+.....+.......+.......+........+....+....",
"..+.........+..+.......+........+............+........+........."};
